<svg xmlns="http://www.w3.org/2000/svg" viewBox="0 0 1200 750"><defs/><path fill-rule="evenodd" d="M634 534l-2-60 9-2 2 61-9 1zm-11 0h-13v-57l11-1 2 58zm-11-69l-3-35 8-2 7 33-12 4zm49-5l-3-7 8-6 4 8-9 5zm-28-3l-8-31 10-4 9 29-11 6zm46-6l-4-10 12-8 7 12-15 6zm-25-6l-11-27 8-7 11 28-8 6zm47-3l-9-13 12-6 12 16-15 3zm247-1l-88-53 19-6 105 58-36 1zm51-2l-113-60 21-7 122 58-30 9zm-66 1l-38-2-63-45 17-3 84 50zm-90-5l-45-36 21-4 59 42-35-2zm-113 1l-16-19 13-6 22 23-19 2zm74-1l-35-32 15-3 44 34-24 1zm-18 0h-22l-24-26 15-4 31 30zm-116 0l-13-29 8-6 18 27-13 8zm367-8l-123-58 18-8 124 53-19 13zm-350-5l-17-27 9-6 19 27-11 6zm-79-4l-3-36 4-1 6 36-7 1zm15-4l-9-34 7-3 11 35-9 2zm86-5l-21-25 9-6 24 25-12 6zm-69-3l-13-30 5-5 14 32-6 3zm423-1l-121-49 15-11 117 41-11 19zm-331-6l-27-25 11-6 29 27-13 4zm-80-2l-14-29 5-4 16 24-7 9zm105-4l-33-27 11-4 34 28-12 3zm-10-34l15-3 39 28-17 3-37-28zm-83 25l-17-23 6-7 18 24-7 6zm152-2l-43-28 14-1 45 26-16 3zm146-40l13-12 109 30-5 18-117-36zm-118 34l-41-25 15-2 44 24-18 3zm-166-3l-20-23 7-7 22 24-9 6zm193-3l-44-23 20-3 43 20-19 6zm-177-7l-22-26 6-4 26 24-10 6zm206-2l-41-19 17-5 41 18-17 6zm-188-6l-28-25 10-3 28 24-10 4zm375-3l-107-28 8-12 104 21-5 19zm-161-2l-39-16 18-6 35 12-14 10zm-194-2l-30-24 12-2 33 25-15 1zm24-3l-34-25 12-2 36 26-14 1zm27-3l-42-26 14-2 44 27-16 1zm31-3l-50-27 14-3 51 27-15 3zm133-3l-36-11 12-10 35 10-11 11zm-105-2l-53-25 15-1 55 23-17 3zm29-7l-55-20 20-2 52 17-17 5zm-190-8l-14 8v-31l33-19 1 34-20 8zm413 4l-102-18 4-11 101 13-3 16zm-130-4l-35-8 7-8 36 6-8 10zm-70 0l-46-16 15-4 44 12-13 8zm20-12l-39-11 12-4 35 8-8 7zm-200-35l34-5v36l-32 4-2-35zm263 31l-37-7 4-9 36 5-3 11zm-216-2l-1-35 39 3v29l-38 3zm51-5v-27l31 1v23l-31 3zm288-2l-102-10 2-14 102 3-2 21zm-167-8l-5 8-34-6 8-6 31 4zm-66 1l-13 4v-22l42-1-4 6c-5 5-13 10-25 13zm117-5l-35-4 3-10 35 2-3 12zm-77-8l1-7 33 2-4 9-30-4zM506 539h178v55H506v-55zm171 10H513v36h164v-36zm-89-70h14l-1 56h-13v-56zm-42 54l1-60 9 1-1 60-9-1zm22-57l10 1v57h-13l3-58zm19-45h16l2 36h-20l2-36zm-23 30l7-33 8 2-3 35-12-4zm-45-5l4-9 8 6-3 7-9-4zm26-4l9-30 10 4-8 31-11-5zm-50-7l7-11 12 7-4 10-15-6zm32-6l11-28 8 7-11 27-8-6zm-54 0l12-16 11 6-9 13-14-3zm-268 1l105-58 18 6-87 53-36-1zm-45-9l122-59 20 7-112 60-30-8zm179-41l17 3-63 45-37 2 83-50zm-28 47l58-42 21 4-45 36-34 2zm128-3l22-23 13 6-16 19-19-2zm-79 0l44-34 16 3-35 32-25-1zm74-29l15 4-25 26h-21l31-30zm72 22l18-27 8 6-14 29-12-8zm-373-13l124-53 17 8-122 58-19-13zm358 2l18-27 10 6-18 27-10-6zm83 1l6-36 4 1-3 36-7-1zm16-34h10l2 36h-14l2-36zm-33 29l10-35 7 3-9 34-8-2zm-89-9l24-25 9 6-22 25-11-6zm75 0l13-32 5 5-13 30-5-3zm-428-17l117-41 15 11-121 49-11-19zm329 9l29-26 11 5-27 25-13-4zm85-6l17-24 5 3-14 29-8-8zm-110 1l35-27 11 3-33 27-13-3zm-14-2l-17-4 39-27 15 2-37 29zm112-9l18-25 6 7-16 23-8-5zm-160 0l45-26 14 1-43 28-16-3zm-247-1l-6-18 109-30 14 12-117 36zm217-5l44-24 15 2-42 25-17-3zm174-6l22-24 8 7-20 23-10-6zm-202-2l42-21 21 3-44 23-19-5zm240-27c-3-6-4-13-5-25 0-16 0-16 2-16l17 5c13 4 15 5 42 5s29-1 42-5l16-5c3 0 3 0 2 16-1 21-5 31-15 42-11 11-21 14-41 15l-22-1c-19-4-32-15-38-31zm-54 19l26-24 6 4-23 26-9-6zm-214-2l42-18 17 5-42 19-17-6zm196-4l27-24 10 3-27 25-10-4zM97 333l103-21 9 13-107 27-5-19zm152 7l35-12 17 7-38 16-14-11zm192 7l34-25 12 2-30 24-16-1zm-22-3l35-26 13 2-35 25-13-1zm-30-3l45-27 13 2-42 26-16-1zm-29-5l50-27 14 3-50 27-14-3zm-130-11l35-10 12 10-35 11-12-11zm99 6l56-23 15 1-53 25-18-3zm-28-9l52-17 20 2-55 20-17-5zm207-2l-20-9v-33l34 18v31l-14-7zM92 307l101-13 4 11-102 18-3-16zm124 2l36-6 7 8-34 8-9-10zm65 2l45-12 15 5-47 15-13-8zm-15-11l35-8 12 4-39 11-8-7zm207 7l-32-4v-36l34 5-2 35zm-265-15l36-5 5 10-37 6-4-11zm182 6v-29l38-2-1 35-37-4zm184 0c-14-3-29-14-33-30-5-16-3-35 1-53 1 6 2 23 8 24l5-19 9-33 5-15 1 13c1 16 4 31 6 31a330 330 0 0119-66c3 17 0 34 4 52 3 12 5 19 7 19 6-14 7-27 9-42 6 14 7 28 8 39 0 13 2 23 3 24 2 3 9-23 7-29-1-5 6 6 11 16 5 9 6 12 6 21 0 23-16 41-43 48-9 2-24 2-33 0zm-228-5v-23l30-1v27l-30-3zM86 273l103-3 1 14-101 10-3-21zm201 9l7 6-34 6-5-8 32-4zm9-8l-3-6 41 2v21l-12-3c-13-4-21-9-26-14zm-95-4l36-2 3 10-36 4-3-12zm50 8l-3-9 32-2 2 8-31 3zm281 274l4 11h12l-9 7 3 11-10-7-9 7 3-11-9-7h12l3-11zm-3 16c0 2 2 4 4 4s4-2 4-4c0-3-2-4-4-4s-4 1-4 4zm42-16l4 11h12l-9 7 3 11-10-7-9 7 3-11-9-7h12l3-11zm-3 16c0 2 2 4 4 4s4-2 4-4c0-3-2-4-4-4s-4 1-4 4zm45-16l4 11h12l-9 7 3 11-10-7-9 7 3-11-9-7h12l3-11zm-3 16c0 2 2 4 4 4s4-2 4-4c0-3-2-4-4-4s-4 1-4 4zm42-16l4 11h12l-9 7 3 11-10-7-9 7 3-11-9-7h12l3-11zm-3 16c0 2 2 4 4 4s4-2 4-4c0-3-2-4-4-4s-4 1-4 4z" class="shp0"/></svg>