<svg xmlns="http://www.w3.org/2000/svg" viewBox="0 0 93 93" width="93" height="93">
	<style>
		tspan { white-space:pre }
		.shp0 { fill: #000000 } 
	</style>
	<path id="Lager 1" class="shp0" d="M48.69 87.02L79.63 57.37C87.21 49.82 91 42.41 91 35.13C91 27.88 88.9 22.21 84.69 18.13C80.49 14.04 74.68 12 67.26 12C65.21 12 63.11 12.35 60.98 13.06C58.84 13.77 56.86 14.73 55.02 15.93C53.18 17.13 51.6 18.26 50.27 19.31C48.95 20.37 47.69 21.49 46.5 22.68C45.31 21.49 44.05 20.37 42.73 19.31C41.4 18.26 39.82 17.13 37.98 15.93C36.14 14.73 34.16 13.77 32.02 13.06C29.89 12.35 27.79 12 25.74 12C18.32 12 12.51 14.04 8.31 18.13C4.1 22.21 2 27.88 2 35.13C2 37.34 2.39 39.61 3.17 41.95C3.94 44.29 4.83 46.28 5.82 47.93C6.82 49.58 7.94 51.18 9.2 52.75C10.46 54.31 11.38 55.39 11.96 55.99C12.54 56.58 12.99 57.01 13.32 57.27L44.31 87.02C44.91 87.62 45.64 87.91 46.5 87.91C47.36 87.91 48.09 87.62 48.69 87.02L48.69 87.02Z" />
</svg>