<svg xmlns="http://www.w3.org/2000/svg" viewBox="0 0 93 93" width="93" height="93">
	<style>
		tspan { white-space:pre }
		.shp0 { fill: #000000 } 
	</style>
	<path id="Form 1" class="shp0" d="M88 33.88L61.16 29.92L49.12 5.23C48.44 3.74 47.57 3 46.5 3C45.43 3 44.56 3.74 43.88 5.23L31.84 29.92L5 33.88C3 34.21 2 35.04 2 36.38C2 37.14 2.45 38.01 3.34 38.98L22.81 58.19L18.21 85.33C18.13 85.84 18.1 86.2 18.1 86.42C18.1 87.18 18.29 87.82 18.66 88.34C19.04 88.87 19.6 89.13 20.35 89.13C20.99 89.13 21.7 88.91 22.48 88.48L46.5 75.67L70.52 88.48C71.26 88.91 71.98 89.13 72.65 89.13C73.37 89.13 73.91 88.87 74.29 88.34C74.66 87.82 74.85 87.18 74.85 86.42C74.85 85.94 74.83 85.58 74.79 85.33L70.19 58.19L89.61 38.98C90.54 38.04 91 37.17 91 36.38C91 35.04 90 34.21 88 33.88L88 33.88Z" />
</svg>